<svg t="1620262812555" class="icon" viewBox="0 0 1024 1024" version="1.1" xmlns="http://www.w3.org/2000/svg" p-id="2579" width="260" height="260"><path d="M560.8 834.6L271.7 707.1c-17.6-7.8-31.2-22-38.2-39.9-7-18-6.5-37.6 1.3-55.2l152.3-345.3-103.4-9.3c-31.1-2.8-58.5 20.1-61.3 51.2l-45 499.4c-2.8 31.1 20.1 58.5 51.2 61.3l314.7 28.3c31.1 2.8 58.5-20.1 61.3-51.2l0.7-7.4c-5 1.1-10.1 1.8-15.4 1.8-10 0-19.8-2.1-29.1-6.2z" fill="#2c2c2c" p-id="2580"></path><path d="M815.1 258.1L526 130.6c-28.6-12.6-61.9 0.3-74.5 28.9L249.2 618.3c-12.6 28.6 0.3 61.9 28.9 74.5l289.1 127.5c28.6 12.6 61.9-0.3 74.5-28.9L844 332.6c12.6-28.5-0.3-61.9-28.9-74.5zM597.2 500.7l-78.4 37.7-25-83.4c-1.8-7.2-1.4-15 1.8-22.4 7.7-17.4 28-25.3 45.4-17.6 8.5 3.7 14.7 10.5 17.9 18.5l7.1-24.8 16.7 7.4-13.6 21.9c8.1-3 17.3-3 25.8 0.8 17.4 7.7 25.3 28 17.6 45.4-3.2 7.4-8.7 13-15.3 16.5z" fill="#2c2c2c" p-id="2581"></path></svg>